<svg width="1200" height="900" viewBox="0 0 1200 900" xmlns="http://www.w3.org/2000/svg" font-family="'Inter', 'Segoe UI', sans-serif">
  <defs>
    <linearGradient id="bg" x1="0%" x2="0%" y1="0%" y2="100%">
      <stop offset="0%" stop-color="#0b132b"/>
      <stop offset="100%" stop-color="#1c2541"/>
    </linearGradient>
    <filter id="shadow" x="-10%" y="-10%" width="120%" height="120%">
      <feDropShadow dx="0" dy="6" stdDeviation="8" flood-color="#000" flood-opacity="0.25"/>
    </filter>
  </defs>
  <rect width="1200" height="900" fill="url(#bg)"/>
  <text x="120" y="110" fill="#eef2ff" font-size="28" font-weight="700">Latest measures</text>
  <g transform="translate(120,160)" fill="#e2e8f0">
    <rect x="0" y="0" width="960" height="160" rx="18" fill="#111827" opacity="0.5"/>
    <g transform="translate(0,0)" filter="url(#shadow)">
      <rect x="0" y="0" width="240" height="160" rx="18" fill="#111827" stroke="#2563eb" stroke-width="2"/>
      <text x="20" y="40" font-size="18" fill="#93c5fd">Site</text>
      <text x="20" y="75" font-size="20" font-weight="700" fill="#e5e7eb">Batiment Est</text>
      <text x="20" y="115" font-size="14" fill="#9ca3af">Updated 2 min ago</text>
    </g>
    <g transform="translate(240,0)" filter="url(#shadow)">
      <rect x="0" y="0" width="240" height="160" rx="18" fill="#111827" stroke="#2563eb" stroke-width="2"/>
      <text x="20" y="40" font-size="18" fill="#93c5fd">Temperature</text>
      <text x="20" y="85" font-size="40" font-weight="700" fill="#f59e0b">21.4°C</text>
      <text x="20" y="125" font-size="14" fill="#9ca3af">Comfortable</text>
    </g>
    <g transform="translate(480,0)" filter="url(#shadow)">
      <rect x="0" y="0" width="240" height="160" rx="18" fill="#111827" stroke="#2563eb" stroke-width="2"/>
      <text x="20" y="40" font-size="18" fill="#93c5fd">Humidity</text>
      <text x="20" y="85" font-size="40" font-weight="700" fill="#22d3ee">48%</text>
      <text x="20" y="125" font-size="14" fill="#9ca3af">Within target</text>
    </g>
    <g transform="translate(720,0)" filter="url(#shadow)">
      <rect x="0" y="0" width="240" height="160" rx="18" fill="#111827" stroke="#2563eb" stroke-width="2"/>
      <text x="20" y="40" font-size="18" fill="#93c5fd">CO₂</text>
      <text x="20" y="85" font-size="40" font-weight="700" fill="#ef4444">850 ppm</text>
      <text x="20" y="125" font-size="14" fill="#9ca3af">Slightly elevated</text>
    </g>
  </g>
  <g transform="translate(120,360)" fill="#e2e8f0">
    <rect x="0" y="0" width="960" height="160" rx="18" fill="#111827" opacity="0.5"/>
    <g transform="translate(0,0)" filter="url(#shadow)">
      <rect x="0" y="0" width="240" height="160" rx="18" fill="#111827" stroke="#2563eb" stroke-width="2"/>
      <text x="20" y="40" font-size="18" fill="#93c5fd">Site</text>
      <text x="20" y="75" font-size="20" font-weight="700" fill="#e5e7eb">Salle Réunion</text>
      <text x="20" y="115" font-size="14" fill="#9ca3af">Updated 5 min ago</text>
    </g>
    <g transform="translate(240,0)" filter="url(#shadow)">
      <rect x="0" y="0" width="240" height="160" rx="18" fill="#111827" stroke="#2563eb" stroke-width="2"/>
      <text x="20" y="40" font-size="18" fill="#93c5fd">Temperature</text>
      <text x="20" y="85" font-size="40" font-weight="700" fill="#f59e0b">23.1°C</text>
      <text x="20" y="125" font-size="14" fill="#9ca3af">Feels warm</text>
    </g>
    <g transform="translate(480,0)" filter="url(#shadow)">
      <rect x="0" y="0" width="240" height="160" rx="18" fill="#111827" stroke="#2563eb" stroke-width="2"/>
      <text x="20" y="40" font-size="18" fill="#93c5fd">Humidity</text>
      <text x="20" y="85" font-size="40" font-weight="700" fill="#22d3ee">54%</text>
      <text x="20" y="125" font-size="14" fill="#9ca3af">Slightly humid</text>
    </g>
    <g transform="translate(720,0)" filter="url(#shadow)">
      <rect x="0" y="0" width="240" height="160" rx="18" fill="#111827" stroke="#2563eb" stroke-width="2"/>
      <text x="20" y="40" font-size="18" fill="#93c5fd">CO₂</text>
      <text x="20" y="85" font-size="40" font-weight="700" fill="#ef4444">1200 ppm</text>
      <text x="20" y="125" font-size="14" fill="#9ca3af">Needs ventilation</text>
    </g>
  </g>
  <g transform="translate(120,560)" fill="#e2e8f0">
    <rect x="0" y="0" width="960" height="220" rx="18" fill="#111827" opacity="0.5"/>
    <text x="0" y="-16" font-size="18" fill="#cbd5e1">Interactions</text>
    <g transform="translate(20,20)" filter="url(#shadow)">
      <rect x="0" y="0" width="440" height="80" rx="14" fill="#1f2937" stroke="#2563eb" stroke-width="2"/>
      <text x="24" y="32" font-size="16" fill="#e5e7eb">Rafraîchir</text>
      <text x="24" y="56" font-size="13" fill="#9ca3af">Relance manuelle des mesures</text>
      <rect x="340" y="20" width="80" height="40" rx="12" fill="#2563eb"/>
      <text x="364" y="46" font-size="16" fill="#e5e7eb">GO</text>
    </g>
    <g transform="translate(20,120)" filter="url(#shadow)">
      <rect x="0" y="0" width="440" height="80" rx="14" fill="#1f2937" stroke="#2563eb" stroke-width="2"/>
      <text x="24" y="32" font-size="16" fill="#e5e7eb">Rafraîchissement auto</text>
      <text x="24" y="56" font-size="13" fill="#9ca3af">Toutes les 60s via TanStack Query</text>
      <circle cx="380" cy="40" r="16" fill="#10b981"/>
      <text x="372" y="46" font-size="16" fill="#e5e7eb">✓</text>
    </g>
  </g>
</svg>
